<?xml version="1.0" encoding="UTF-8"?>
<!DOCTYPE svg PUBLIC "-//W3C//DTD SVG 1.1//EN" "http://www.w3.org/Graphics/SVG/1.1/DTD/svg11.dtd">
<!-- Creator: CorelDRAW X8 -->
<svg xmlns="http://www.w3.org/2000/svg" xml:space="preserve" width="576px" height="547px" version="1.1" style="shape-rendering:geometricPrecision; text-rendering:geometricPrecision; image-rendering:optimizeQuality; fill-rule:evenodd; clip-rule:evenodd"
viewBox="0 0 262821 249373"
 xmlns:xlink="http://www.w3.org/1999/xlink">
 <defs>
  <style type="text/css">
   <![CDATA[
    .fil0 {fill:#FFD542;fill-rule:nonzero}
   ]]>
  </style>
 </defs>
 <g id="Слой_x0020_1">
  <metadata id="CorelCorpID_0Corel-Layer"/>
  <path class="fil0" d="M40399 161433l3164 2928c11011,-14659 23091,-22666 35958,-25758 13435,-3230 27492,-1040 41937,4554l44593 0c7042,0 11875,3429 14557,8191l27103 -26848c6146,-6088 13876,-7141 20371,-5071 2679,854 5145,2245 7199,4035 2107,1837 3795,4091 4858,6622 2304,5490 1789,12143 -3521,18549l-35713 43083c-3759,4534 -8215,8158 -13418,10623 -4917,2329 -10446,3599 -16617,3599l-69443 0c-3148,0 -6170,112 -8984,584 -932,156 -1851,352 -2757,596 1472,1654 2256,3724 2337,5818 90,2360 -724,4766 -2462,6644l-24824 26814 -95 127 -13 -13c-1729,1806 -4028,2765 -6354,2856 -2361,90 -4766,-723 -6644,-2461l-126 -95 11 -13 -48540 -44935c-1879,-1740 -2877,-4087 -2969,-6463 -90,-2359 722,-4765 2461,-6644l24825 -26814c1740,-1880 4086,-2878 6462,-2970 2360,-90 4766,722 6644,2462zm169571 -70111l0 15498 46864 0c2231,0 4040,1808 4040,4039 0,2231 -1809,4040 -4040,4040l-50800 0 -104 1 -127627 0c-2231,0 -4040,-1809 -4040,-4040l0 -106820c0,-2231 1809,-4040 4040,-4040l127627 0c2231,0 4040,1809 4040,4040l0 25757 25324 0 0 12c1049,1 2098,407 2887,1219l23499 24151c1551,1594 1516,4145 -79,5697 -1594,1551 -4145,1515 -5696,-79l-22302 -22920 -23633 0 0 18780 13357 0c2231,0 4040,1809 4040,4040 0,2231 -1809,4039 -4040,4039l-42210 0c-2257,0 -3761,1378 -4431,3147 -313,826 -471,1725 -468,2622 2,861 166,1742 494,2573 748,1892 2543,3378 5493,3378l21975 0c1202,0 2280,524 3020,1357l11242 10393c1629,1507 1728,4052 221,5681 -1507,1629 -4051,1728 -5680,221l-3013 -2786zm-8080 -34665l0 -3056c-4938,-744 -9360,-3067 -12732,-6439 -3234,-3236 -5505,-7436 -6341,-12133l-81401 0c-836,4697 -3107,8897 -6341,12133 -3372,3372 -7794,5695 -12732,6439l0 34643c4938,744 9360,3068 12732,6439 3235,3236 5507,7439 6342,12138l81400 0c835,-4699 3106,-8902 6341,-12138 3372,-3371 7794,-5695 12732,-6439l0 -3709 -19685 0c-6847,0 -11123,-3735 -13004,-8490 -685,-1733 -1025,-3631 -1031,-5540 -6,-1873 322,-3745 973,-5462 1786,-4717 5844,-8386 11974,-8386l20773 0zm0 -11280l0 -10348 -10791 0c696,2461 2013,4661 3772,6420 1900,1900 4316,3286 7019,3928zm-108755 -10348l-10792 0 0 10348c2703,-642 5119,-2028 7019,-3928 1759,-1759 3076,-3959 3773,-6420zm97962 71792l10793 0 0 -10353c-2703,642 -5119,2028 -7019,3928 -1760,1760 -3078,3962 -3774,6425zm-108754 -10353l0 10353 10793 0c-696,-2463 -2014,-4665 -3774,-6425 -1900,-1900 -4316,-3286 -7019,-3928zm59774 -48296c6312,0 12027,2559 16164,6695 4136,4136 6696,9853 6696,16165 0,6312 -2560,12027 -6696,16164 -4137,4136 -9852,6696 -16164,6696 -6312,0 -12029,-2560 -16165,-6696 -4136,-4137 -6695,-9852 -6695,-16164 0,-6312 2559,-12029 6695,-16165 4136,-4136 9853,-6695 16165,-6695zm10452 12408c-2675,-2674 -6371,-4329 -10452,-4329 -4082,0 -7778,1655 -10452,4329 -2674,2674 -4329,6370 -4329,10452 0,4081 1655,7777 4329,10452 2674,2674 6370,4328 10452,4328 4081,0 7777,-1654 10452,-4328 2674,-2675 4328,-6371 4328,-10452 0,-4082 -1654,-7778 -4328,-10452zm-70226 -47075l119547 0 0 -5426 -119547 0 0 5426zm119547 8079l-119547 0 0 5366 119547 0 0 -5366zm-90826 149139c2504,0 4535,2030 4535,4535 0,2504 -2031,4535 -4535,4535 -2505,0 -4535,-2031 -4535,-4535 0,-2505 2030,-4535 4535,-4535zm71969 -10468c8,236 11,471 11,707 -7,2437 -437,4872 -1282,7111 -2314,6129 -7586,10941 -15711,10941l-34012 0c-2231,0 -4040,-1809 -4040,-4040 0,-2231 1809,-4040 4040,-4040l34012 0c4220,0 6962,-2507 8168,-5702 512,-1356 773,-2819 777,-4270 3,-1457 -247,-2914 -753,-4250 -1168,-3080 -3877,-5475 -8192,-5475l-45350 0c-494,-1 -996,-92 -1483,-284 -13263,-5237 -25985,-7371 -37834,-4523 -11257,2705 -21953,9969 -31884,23428l33566 31074c2637,-1166 5318,-1903 8052,-2361 3421,-574 6833,-710 10309,-710l69443 0c4957,0 9338,-992 13177,-2811 4078,-1932 7615,-4825 10641,-8476l35713 -43083c3102,-3741 3501,-7395 2290,-10281 -589,-1401 -1532,-2658 -2712,-3687 -1235,-1076 -2718,-1912 -4328,-2425 -3881,-1237 -8528,-582 -12260,3115l-30044 29760c-101,101 -205,194 -314,282zm-99439 52122l-48654 -45042c-242,-224 -570,-328 -900,-316 -315,12 -623,141 -845,381l-24824 26814c-224,242 -328,570 -316,901 12,314 141,622 381,845l48654 45042 127 95c221,159 495,231 773,221 315,-12 622,-141 844,-381l95 -126 12 11 24718 -26700c224,-242 328,-569 316,-900 -12,-315 -140,-622 -381,-845z"/>
 </g>
</svg>
