<?xml version="1.0" encoding="UTF-8"?>
<!DOCTYPE svg PUBLIC "-//W3C//DTD SVG 1.1//EN" "http://www.w3.org/Graphics/SVG/1.1/DTD/svg11.dtd">
<!-- Creator: CorelDRAW X8 -->
<svg xmlns="http://www.w3.org/2000/svg" xml:space="preserve" width="395px" height="539px" version="1.1" style="shape-rendering:geometricPrecision; text-rendering:geometricPrecision; image-rendering:optimizeQuality; fill-rule:evenodd; clip-rule:evenodd"
viewBox="0 0 299812 409384"
 xmlns:xlink="http://www.w3.org/1999/xlink">
 <defs>
  <style type="text/css">
   <![CDATA[
    .fil0 {fill:#FFD542;fill-rule:nonzero}
   ]]>
  </style>
 </defs>
 <g id="Слой_x0020_1">
  <metadata id="CorelCorpID_0Corel-Layer"/>
  <path class="fil0" d="M111311 96191l133019 0 0 -56821c0,-7120 -2920,-13601 -7621,-18301 -4700,-4701 -11179,-7620 -18300,-7620l-140827 0 0 46759c0,5189 -2119,9905 -5532,13317 -3412,3412 -8128,5532 -13317,5532l-45284 0 0 257815c0,7121 2919,13601 7620,18301 4700,4701 11181,7620 18301,7620l32572 0 0 -227232c0,-10834 4427,-20678 11559,-27811 7131,-7131 16977,-11559 27810,-11559zm114139 228598l34556 0c3713,0 6724,3011 6724,6724l0 34556c0,3714 -3011,6725 -6724,6725l-34556 0c-3714,0 -6725,-3011 -6725,-6725l0 -34556c0,-3713 3011,-6724 6725,-6724zm27831 13449l-21107 0 0 21107 21107 0 0 -21107zm-27831 -69223l34556 0c3713,0 6724,3011 6724,6724l0 34556c0,3714 -3011,6725 -6724,6725l-34556 0c-3714,0 -6725,-3011 -6725,-6725l0 -34556c0,-3713 3011,-6724 6725,-6724zm27831 13449l-21107 0 0 21107 21107 0 0 -21107zm-84515 42325l34556 0c3713,0 6724,3011 6724,6724l0 34556c0,3714 -3011,6725 -6724,6725l-34556 0c-3714,0 -6725,-3011 -6725,-6725l0 -34556c0,-3713 3011,-6724 6725,-6724zm27831 13449l-21107 0 0 21107 21107 0 0 -21107zm-27831 -69223l34556 0c3713,0 6724,3011 6724,6724l0 34556c0,3714 -3011,6725 -6724,6725l-34556 0c-3714,0 -6725,-3011 -6725,-6725l0 -34556c0,-3713 3011,-6724 6725,-6724zm27831 13449l-21107 0 0 21107 21107 0 0 -21107zm-84515 42325l34556 0c3713,0 6724,3011 6724,6724l0 34556c0,3714 -3011,6725 -6724,6725l-34556 0c-3714,0 -6725,-3011 -6725,-6725l0 -34556c0,-3713 3011,-6724 6725,-6724zm27831 13449l-21107 0 0 21107 21107 0 0 -21107zm-27831 -69223l34556 0c3713,0 6724,3011 6724,6724l0 34556c0,3714 -3011,6725 -6724,6725l-34556 0c-3714,0 -6725,-3011 -6725,-6725l0 -34556c0,-3713 3011,-6724 6725,-6724zm27831 13449l-21107 0 0 21107 21107 0 0 -21107zm85537 -69223l34556 0c3713,0 6724,3011 6724,6724l0 34556c0,3714 -3011,6725 -6724,6725l-34556 0c-3714,0 -6725,-3011 -6725,-6725l0 -34556c0,-3713 3011,-6724 6725,-6724zm27831 13449l-21107 0 0 21107 21107 0 0 -21107zm-84515 -13449l34556 0c3713,0 6724,3011 6724,6724l0 34556c0,3714 -3011,6725 -6724,6725l-34556 0c-3714,0 -6725,-3011 -6725,-6725l0 -34556c0,-3713 3011,-6724 6725,-6724zm27831 13449l-21107 0 0 21107 21107 0 0 -21107zm-84515 -13449l34556 0c3713,0 6724,3011 6724,6724l0 34556c0,3714 -3011,6725 -6724,6725l-34556 0c-3714,0 -6725,-3011 -6725,-6725l0 -34556c0,-3713 3011,-6724 6725,-6724zm27831 13449l-21107 0 0 21107 21107 0 0 -21107zm-27831 -95608l147924 0c3713,0 6724,3011 6724,6725l0 54562c0,3713 -3011,6724 -6724,6724l-147924 0c-3714,0 -6725,-3011 -6725,-6724l0 -54562c0,-3714 3011,-6725 6725,-6725zm141199 13449l-134475 0 0 41113 134475 0 0 -41113zm-118768 -67898c-3714,0 -6725,-3011 -6725,-6725 0,-3714 3011,-6724 6725,-6724l47287 0c3714,0 6725,3010 6725,6724 0,3714 -3011,6725 -6725,6725l-47287 0zm0 -29708c-3714,0 -6725,-3010 -6725,-6724 0,-3714 3011,-6725 6725,-6725l84268 0c3714,0 6724,3011 6724,6725 0,3714 -3010,6724 -6724,6724l-84268 0zm-70380 -26202l-43837 44885 38437 0c1477,0 2826,-611 3808,-1592 981,-982 1592,-2332 1592,-3808l0 -39485zm193646 75468l2663 0c10834,0 20680,4428 27811,11559 7132,7133 11559,16977 11559,27811l0 234453c0,10834 -4427,20680 -11559,27811 -7131,7132 -16977,11559 -27811,11559l-149131 0c-10833,0 -20679,-4427 -27810,-11559 -5738,-5737 -9724,-13231 -11064,-21583l-33067 0c-10833,0 -20679,-4427 -27810,-11560 -7133,-7131 -11560,-16976 -11560,-27810l0 -266965c0,-2007 880,-3809 2275,-5041l61351 -62817c1314,-1351 3060,-2028 4806,-2029l0 -20 149977 0c10833,0 20678,4427 27810,11560 7132,7131 11560,16977 11560,27810l0 56821zm-172388 272335c47,324 72,655 72,992 0,326 -23,647 -68,961 124,6938 3016,13238 7615,17837 4701,4701 11181,7619 18301,7619l149131 0c7121,0 13601,-2918 18302,-7619 4701,-4701 7619,-11181 7619,-18302l0 -234453c0,-7121 -2919,-13601 -7619,-18302 -4701,-4700 -11181,-7619 -18302,-7619l-7286 0c-661,218 -1368,335 -2102,335 -734,0 -1441,-117 -2102,-335l-137641 0c-7120,0 -13600,2919 -18301,7619 -4700,4701 -7619,11181 -7619,18302l0 232965z"/>
 </g>
</svg>
