<?xml version="1.0" encoding="UTF-8"?>
<!DOCTYPE svg PUBLIC "-//W3C//DTD SVG 1.1//EN" "http://www.w3.org/Graphics/SVG/1.1/DTD/svg11.dtd">
<!-- Creator: CorelDRAW X8 -->
<svg xmlns="http://www.w3.org/2000/svg" xml:space="preserve" width="515px" height="517px" version="1.1" style="shape-rendering:geometricPrecision; text-rendering:geometricPrecision; image-rendering:optimizeQuality; fill-rule:evenodd; clip-rule:evenodd"
viewBox="0 0 116354 116731"
 xmlns:xlink="http://www.w3.org/1999/xlink">
 <defs>
  <style type="text/css">
   <![CDATA[
    .fil0 {fill:#FFD542;fill-rule:nonzero}
   ]]>
  </style>
 </defs>
 <g id="Слой_x0020_1">
  <metadata id="CorelCorpID_0Corel-Layer"/>
  <path class="fil0" d="M65802 104551c0,-1105 895,-2000 1999,-2000 1105,0 2000,895 2000,2000 0,3197 -1410,6297 -3674,8561 -2191,2191 -5194,3619 -8506,3619l-45440 0c-3352,0 -6398,-1369 -8605,-3576 -2206,-2207 -3576,-5253 -3576,-8604l0 -92370c0,-3352 1370,-6398 3576,-8605 2207,-2206 5253,-3576 8605,-3576l45440 0c3352,0 6397,1370 8604,3576 2207,2207 3576,5253 3576,8605l0 4793c0,1104 -895,2000 -2000,2000 -1104,0 -1999,-896 -1999,-2000l0 -4793c0,-2248 -921,-4293 -2405,-5776 -1471,-1471 -3493,-2389 -5717,-2405l0 358c0,3137 -1282,5988 -3347,8053 -2065,2065 -4916,3347 -8053,3347l-22758 0c-3137,0 -5988,-1282 -8053,-3347 -2065,-2065 -3347,-4916 -3347,-8053l0 -358c-2224,16 -4247,934 -5717,2405 -1484,1483 -2405,3528 -2405,5776l0 92370c0,2247 921,4292 2405,5776 1483,1484 3528,2405 5776,2405l45440 0c2189,0 4196,-967 5678,-2449 1542,-1541 2503,-3619 2503,-5732zm22900 -26912c-285,2533 -1432,4804 -3142,6514 -1983,1984 -4724,3211 -7751,3211 -3027,0 -5768,-1227 -7752,-3211 -1709,-1709 -2857,-3981 -3142,-6512l-12425 0c-1104,0 -2000,-895 -2000,-2000 0,-240 43,-470 120,-683l5965 -19844c-42,-330 -77,-669 -102,-1013 -39,-505 -58,-998 -58,-1474 0,-5356 2171,-10204 5680,-13714 3510,-3509 8359,-5680 13714,-5680 5355,0 10204,2171 13713,5680 3510,3510 5681,8358 5681,13714 0,476 -20,968 -58,1473 -26,345 -60,682 -102,1013l5999 19958c315,1057 -287,2170 -1344,2484 -190,57 -382,84 -570,84l-12426 0zm-17746 2c256,1426 947,2701 1929,3684 1260,1259 3001,2039 4924,2039 1923,0 3664,-779 4923,-2039 983,-983 1674,-2259 1930,-3685l-13706 1zm17738 -35900c-2785,-2785 -6634,-4508 -10885,-4508 -4251,0 -8100,1723 -10886,4508 -2785,2786 -4508,6635 -4508,10886 0,415 14,807 42,1177 29,383 74,773 134,1167 41,281 24,576 -63,867l-5351 17803 41264 0 -5328 -17725c-101,-294 -135,-617 -86,-946 60,-394 105,-784 134,-1167 27,-369 42,-761 42,-1176 0,-4251 -1723,-8100 -4509,-10886zm-39196 -19854l56193 0c2934,0 5601,1199 7532,3130 1932,1932 3131,4598 3131,7532l0 55972c0,2934 -1199,5601 -3131,7532 -1931,1931 -4598,3130 -7532,3130l-56193 0c-2934,0 -5601,-1199 -7532,-3130 -1931,-1931 -3131,-4598 -3131,-7532l0 -13187 -22553 -12846c-958,-543 -1293,-1760 -750,-2718 189,-333 459,-590 772,-762l22531 -12834 0 -13625c0,-2934 1200,-5600 3131,-7532 1931,-1931 4598,-3130 7532,-3130zm56193 4000l-56193 0c-1830,0 -3496,750 -4704,1959 -1208,1208 -1959,2873 -1959,4703l0 14781 -5 0c-1,694 -364,1367 -1010,1734l-20524 11690 20392 11614c678,320 1147,1010 1147,1810l0 14343c0,1830 751,3495 1959,4704 1208,1208 2874,1959 4704,1959l56193 0c1830,0 3496,-751 4704,-1959 1208,-1208 1959,-2874 1959,-4704l0 -55972c0,-1830 -751,-3495 -1959,-4703 -1208,-1209 -2874,-1959 -4704,-1959zm-85561 82181c-1104,0 -2000,-896 -2000,-2000 0,-1105 896,-2000 2000,-2000l29541 0c1104,0 2000,895 2000,2000 0,1104 -896,2000 -2000,2000l-29541 0zm33550 -104068l-37558 0 0 358c0,2033 833,3882 2175,5225 1342,1342 3192,2175 5225,2175l22758 0c2032,0 3882,-833 5225,-2175 1342,-1343 2175,-3192 2175,-5225l0 -358z"/>
 </g>
</svg>
