<?xml version="1.0" encoding="UTF-8"?>
<!DOCTYPE svg PUBLIC "-//W3C//DTD SVG 1.1//EN" "http://www.w3.org/Graphics/SVG/1.1/DTD/svg11.dtd">
<!-- Creator: CorelDRAW X8 -->
<svg xmlns="http://www.w3.org/2000/svg" xml:space="preserve" width="539px" height="512px" version="1.1" style="shape-rendering:geometricPrecision; text-rendering:geometricPrecision; image-rendering:optimizeQuality; fill-rule:evenodd; clip-rule:evenodd"
viewBox="0 0 523786 497078"
 xmlns:xlink="http://www.w3.org/1999/xlink">
 <defs>
  <style type="text/css">
   <![CDATA[
    .fil0 {fill:#FFD542;fill-rule:nonzero}
   ]]>
  </style>
 </defs>
 <g id="Слой_x0020_1">
  <metadata id="CorelCorpID_0Corel-Layer"/>
  <path class="fil0" d="M72002 177161c2227,-4194 7436,-5789 11631,-3562 4194,2227 5789,7436 3562,11630 -15502,29173 -22237,65420 -15977,101326 5462,31331 20875,62427 49068,88347 1356,1248 2219,2832 2579,4507l21562 99143 56846 0 0 -46008c0,-4752 3853,-8605 8605,-8605 919,0 1805,145 2634,411 11415,2779 23197,4758 35348,5909 12428,1177 25314,1500 38666,952 4734,-185 8723,3502 8908,8236l5 336 28 0 0 40085 58258 0 17542 -76216c549,-2402 2057,-4335 4027,-5490 12851,-8160 24364,-17680 34642,-28449 10387,-10884 19509,-23028 27479,-36322 1605,-2683 4446,-4173 7361,-4175l0 -26 50526 0c3631,-1415 6710,-3260 8738,-5578 1585,-1810 2536,-4081 2536,-6872l0 -86195c0,-2205 -1822,-5052 -4435,-7506 -2674,-2513 -5912,-4287 -8674,-4287l-36847 0c-3700,0 -6854,-2335 -8070,-5612 -4002,-8309 -8254,-16578 -12880,-24781l-8 -13 -26 13c-4782,-8482 -9977,-16939 -15717,-25351 -1012,-1484 -1496,-3172 -1495,-4841l-17 0 0 -87104 -63419 36630c-2601,1506 -5665,1495 -8163,239l-24639 -11022c-4324,-1930 -6265,-7004 -4336,-11328 1930,-4324 7004,-6266 11328,-4336l21001 9396 72024 -41600c1374,-927 3027,-1468 4809,-1468 4752,0 8605,3853 8605,8605l0 99381c5478,8163 10443,16294 15011,24396l-26 14c4077,7229 7836,14418 11363,21571l31502 0c7304,0 14828,3723 20439,8994 5821,5470 9880,12923 9880,20010l0 86195c0,7269 -2562,13279 -6838,18167 -4246,4851 -10108,8361 -16668,10740 -1075,485 -2268,753 -3523,753l-47196 0c-8010,12770 -17044,24515 -27188,35145 -10488,10989 -22173,20800 -35148,29336l-18172 78948c-649,4108 -4207,7249 -8498,7249l-73693 0c-4753,0 -8605,-3853 -8605,-8605l0 -39874c-10935,146 -21604,-280 -32010,-1265 -9504,-900 -18757,-2261 -27764,-4072l0 43895c0,4752 -3853,8605 -8605,8605l-72377 0c-3964,-3 -7534,-2759 -8403,-6790l-22461 -103317c-29937,-28323 -46417,-62112 -52360,-96208 -1149,-6585 -1900,-13180 -2279,-19749l-16436 0c-9560,0 -18502,-3347 -25010,-9145 -6483,-5777 -10552,-13875 -10552,-23477l0 -24068c0,-4752 3853,-8605 8605,-8605 4752,0 8605,3853 8605,8605l0 24068c0,4356 1839,8026 4770,10636 3398,3028 8253,4776 13582,4776l16284 0c1082,-27030 8311,-53036 20156,-75327zm77905 10554c-15661,-6380 -29285,-16705 -39627,-29736 -13207,-16641 -21095,-37677 -21095,-60529 0,-26909 10908,-51273 28542,-68907 17635,-17635 41999,-28543 68908,-28543 26909,0 51272,10908 68906,28543 17635,17634 28543,41998 28543,68907 0,9400 -1364,18560 -3906,27284 -1249,4290 -2787,8458 -4589,12483 3842,-35 7731,27 11665,191 4734,185 8421,4174 8236,8908 -185,4734 -4174,8420 -8908,8236 -26641,-1109 -50840,2728 -72639,11415 -21723,8656 -41201,22201 -58472,40538 -3249,3452 -8682,3617 -12135,369 -3452,-3248 -3617,-8682 -369,-12134 2276,-2417 4590,-4759 6940,-7025zm105827 -49381c3381,-5705 6078,-11868 7973,-18373 2061,-7074 3167,-14626 3167,-22511 0,-22157 -8982,-42219 -23501,-56739 -14520,-14519 -34580,-23501 -56738,-23501 -22158,0 -42219,8982 -56739,23501 -14520,14520 -23501,34582 -23501,56739 0,18850 6480,36169 17330,49840 10354,13049 24671,22800 41113,27425 13222,-10346 27481,-18582 42785,-24681 15069,-6004 31102,-9914 48111,-11700zm131726 57188c8450,0 15300,6850 15300,15300 0,8450 -6850,15300 -15300,15300 -8450,0 -15300,-6850 -15300,-15300 0,-8450 6850,-15300 15300,-15300z"/>
 </g>
</svg>
