<?xml version="1.0" encoding="UTF-8"?>
<!DOCTYPE svg PUBLIC "-//W3C//DTD SVG 1.1//EN" "http://www.w3.org/Graphics/SVG/1.1/DTD/svg11.dtd">
<!-- Creator: CorelDRAW X8 -->
<svg xmlns="http://www.w3.org/2000/svg" xml:space="preserve" width="576px" height="547px" version="1.1" style="shape-rendering:geometricPrecision; text-rendering:geometricPrecision; image-rendering:optimizeQuality; fill-rule:evenodd; clip-rule:evenodd"
viewBox="0 0 389784 369839"
 xmlns:xlink="http://www.w3.org/1999/xlink">
 <defs>
  <style type="text/css">
   <![CDATA[
    .fil0 {fill:#FEFEFE;fill-rule:nonzero}
   ]]>
  </style>
 </defs>
 <g id="Слой_x0020_1">
  <metadata id="CorelCorpID_0Corel-Layer"/>
  <path class="fil0" d="M59916 239417l4691 4343c16331,-21741 34247,-33615 53329,-38201 19924,-4790 40773,-1542 62196,6754l66135 0c10443,0 17611,5085 21589,12147l40195 -39817c9115,-9028 20580,-10591 30212,-7520 3973,1267 7631,3328 10677,5984 3125,2724 5629,6067 7204,9821 3418,8141 2655,18008 -5221,27509l-52966 63896c-5574,6724 -12182,12098 -19900,15754 -7292,3454 -15491,5338 -24644,5338l-102988 0c-4670,0 -9152,166 -13325,866 -1382,232 -2745,523 -4088,884 2183,2453 3346,5523 3465,8628 134,3501 -1074,7068 -3651,9854l-36816 39768 -141 187 -20 -18c-2563,2678 -5973,4100 -9423,4235 -3501,134 -7067,-1072 -9853,-3650l-188 -141 17 -18 -71988 -66643c-2788,-2580 -4267,-6061 -4404,-9584 -134,-3500 1072,-7068 3651,-9855l36816 -39768c2580,-2787 6061,-4267 9584,-4403 3500,-135 7069,1071 9855,3650zm251485 -103979l0 22984 69504 0c3309,0 5991,2682 5991,5991 0,3308 -2682,5991 -5991,5991l-75340 0 -155 1 -189281 0c-3308,0 -5991,-2682 -5991,-5991l0 -158423c0,-3309 2683,-5991 5991,-5991l189281 0c3309,0 5991,2682 5991,5991l0 38201 37558 0 0 17c1556,1 3111,604 4282,1808l34851 35818c2300,2364 2248,6148 -117,8448 -2364,2301 -6147,2248 -8448,-116l-33075 -33993 -35051 0 0 27853 19811 0c3308,0 5991,2682 5991,5991 0,3309 -2683,5991 -5991,5991l-62601 0c-3348,0 -5579,2043 -6572,4668 -464,1224 -699,2557 -695,3887 4,1277 247,2584 734,3816 1109,2806 3771,5010 8147,5010l32591 0c1781,0 3381,778 4478,2013l16672 15413c2417,2236 2564,6009 329,8425 -2235,2417 -6009,2564 -8425,329l-4469 -4132zm-11982 -51411l0 -4533c-7324,-1103 -13882,-4549 -18882,-9549 -4797,-4799 -8165,-11029 -9405,-17994l-120724 0c-1240,6965 -4607,13195 -9404,17994 -5002,5000 -11559,8446 -18883,9549l0 51379c7324,1103 13881,4549 18883,9550 4798,4798 8167,11032 9405,18000l120723 0c1238,-6968 4606,-13202 9405,-18000 5000,-5001 11558,-8447 18882,-9550l0 -5500 -29194 0c-10155,0 -16497,-5540 -19287,-12593 -1016,-2569 -1521,-5384 -1529,-8216 -8,-2778 478,-5553 1443,-8100 2649,-6996 8667,-12437 17759,-12437l30808 0zm0 -16729l0 -15347 -16005 0c1033,3649 2987,6913 5595,9521 2818,2819 6401,4873 10410,5826zm-161293 -15347l-16005 0 0 15347c4009,-953 7591,-3007 10410,-5826 2609,-2608 4562,-5872 5595,-9521zm145286 106472l16007 0 0 -15354c-4009,953 -7592,3008 -10410,5826 -2610,2610 -4565,5875 -5597,9528zm-161291 -15354l0 15354 16007 0c-1032,-3653 -2987,-6918 -5597,-9528 -2819,-2818 -6401,-4873 -10410,-5826zm88649 -71627c9361,0 17838,3796 23973,9930 6134,6135 9930,14612 9930,23974 0,9361 -3796,17837 -9930,23973 -6135,6134 -14612,9930 -23973,9930 -9361,0 -17839,-3796 -23973,-9930 -6134,-6136 -9930,-14612 -9930,-23973 0,-9362 3796,-17839 9930,-23974 6134,-6134 14612,-9930 23973,-9930zm15501 18403c-3967,-3966 -9447,-6420 -15501,-6420 -6053,0 -11535,2454 -15501,6420 -3966,3966 -6420,9447 -6420,15501 0,6053 2454,11534 6420,15500 3966,3967 9448,6421 15501,6421 6054,0 11534,-2454 15501,-6421 3966,-3966 6420,-9447 6420,-15500 0,-6054 -2454,-11535 -6420,-15501zm-104150 -69816l177298 0 0 -8047 -177298 0 0 8047zm177298 11982l-177298 0 0 7957 177298 0 0 -7957zm-134703 221184c3715,0 6726,3012 6726,6726 0,3714 -3011,6726 -6726,6726 -3714,0 -6726,-3012 -6726,-6726 0,-3714 3012,-6726 6726,-6726zm106737 -15525c11,350 16,700 15,1050 -10,3613 -647,7225 -1901,10545 -3431,9090 -11251,16226 -23300,16226l-50443 0c-3309,0 -5991,-2682 -5991,-5991 0,-3309 2682,-5991 5991,-5991l50443 0c6259,0 10325,-3719 12114,-8457 759,-2011 1145,-4180 1151,-6332 6,-2162 -365,-4322 -1116,-6304 -1732,-4567 -5751,-8120 -12149,-8120l-67258 0c-732,-1 -1477,-136 -2199,-421 -19670,-7766 -38538,-10932 -56111,-6708 -16695,4012 -32558,14784 -47287,34745l49781 46085c3911,-1729 7887,-2822 11942,-3501 5074,-851 10134,-1053 15290,-1053l102988 0c7352,0 13849,-1471 19543,-4169 6048,-2864 11294,-7156 15781,-12570l52966 -63895c4600,-5550 5193,-10968 3395,-15248 -872,-2078 -2271,-3942 -4022,-5468 -1831,-1596 -4031,-2836 -6417,-3597 -5757,-1835 -12649,-863 -18184,4620l-44557 44137c-150,149 -305,288 -465,417zm-147476 77302l-72158 -66801c-359,-333 -845,-487 -1336,-469 -465,18 -922,209 -1252,565l-36817 39768c-331,359 -486,845 -468,1336 18,465 209,922 565,1252l72158 66802 188 140c327,237 735,343 1147,328 466,-18 923,-209 1252,-564l140 -188 19 17 36658 -39598c332,-359 486,-844 468,-1335 -18,-467 -208,-923 -564,-1253z"/>
 </g>
</svg>
