<?xml version="1.0" encoding="UTF-8"?>
<!DOCTYPE svg PUBLIC "-//W3C//DTD SVG 1.1//EN" "http://www.w3.org/Graphics/SVG/1.1/DTD/svg11.dtd">
<!-- Creator: CorelDRAW X8 -->
<svg xmlns="http://www.w3.org/2000/svg" xml:space="preserve" width="395px" height="539px" version="1.1" style="shape-rendering:geometricPrecision; text-rendering:geometricPrecision; image-rendering:optimizeQuality; fill-rule:evenodd; clip-rule:evenodd"
viewBox="0 0 218518 298380"
 xmlns:xlink="http://www.w3.org/1999/xlink">
 <defs>
  <style type="text/css">
   <![CDATA[
    .fil0 {fill:#FEFEFE;fill-rule:nonzero}
   ]]>
  </style>
 </defs>
 <g id="Слой_x0020_1">
  <metadata id="CorelCorpID_0Corel-Layer"/>
  <path class="fil0" d="M81129 70109l96951 0 0 -41414c0,-5190 -2128,-9913 -5554,-13339 -3426,-3426 -8149,-5554 -13339,-5554l-102641 0 0 34080c0,3783 -1545,7220 -4032,9707 -2487,2487 -5924,4032 -9707,4032l-33005 0 0 187908c0,5190 2128,9913 5554,13339 3426,3426 8149,5554 13339,5554l23740 0 0 -165618c0,-7897 3227,-15072 8424,-20270 5198,-5198 12374,-8425 20270,-8425zm83190 166613l25186 0c2707,0 4901,2195 4901,4902l0 25186c0,2706 -2194,4901 -4901,4901l-25186 0c-2707,0 -4901,-2195 -4901,-4901l0 -25186c0,-2707 2194,-4902 4901,-4902zm20285 9803l-15384 0 0 15384 15384 0 0 -15384zm-20285 -50454l25186 0c2707,0 4901,2195 4901,4902l0 25186c0,2707 -2194,4901 -4901,4901l-25186 0c-2707,0 -4901,-2194 -4901,-4901l0 -25186c0,-2707 2194,-4902 4901,-4902zm20285 9803l-15384 0 0 15384 15384 0 0 -15384zm-61599 30848l25186 0c2707,0 4901,2195 4901,4902l0 25186c0,2706 -2194,4901 -4901,4901l-25186 0c-2707,0 -4901,-2195 -4901,-4901l0 -25186c0,-2707 2194,-4902 4901,-4902zm20285 9803l-15384 0 0 15384 15384 0 0 -15384zm-20285 -50454l25186 0c2707,0 4901,2195 4901,4902l0 25186c0,2707 -2194,4901 -4901,4901l-25186 0c-2707,0 -4901,-2194 -4901,-4901l0 -25186c0,-2707 2194,-4902 4901,-4902zm20285 9803l-15384 0 0 15384 15384 0 0 -15384zm-61599 30848l25186 0c2707,0 4901,2195 4901,4902l0 25186c0,2706 -2194,4901 -4901,4901l-25186 0c-2707,0 -4901,-2195 -4901,-4901l0 -25186c0,-2707 2194,-4902 4901,-4902zm20285 9803l-15384 0 0 15384 15384 0 0 -15384zm-20285 -50454l25186 0c2707,0 4901,2195 4901,4902l0 25186c0,2707 -2194,4901 -4901,4901l-25186 0c-2707,0 -4901,-2194 -4901,-4901l0 -25186c0,-2707 2194,-4902 4901,-4902zm20285 9803l-15384 0 0 15384 15384 0 0 -15384zm62343 -50453l25186 0c2707,0 4901,2194 4901,4901l0 25186c0,2707 -2194,4901 -4901,4901l-25186 0c-2707,0 -4901,-2194 -4901,-4901l0 -25186c0,-2707 2194,-4901 4901,-4901zm20285 9802l-15384 0 0 15384 15384 0 0 -15384zm-61599 -9802l25186 0c2707,0 4901,2194 4901,4901l0 25186c0,2707 -2194,4901 -4901,4901l-25186 0c-2707,0 -4901,-2194 -4901,-4901l0 -25186c0,-2707 2194,-4901 4901,-4901zm20285 9802l-15384 0 0 15384 15384 0 0 -15384zm-61599 -9802l25186 0c2707,0 4901,2194 4901,4901l0 25186c0,2707 -2194,4901 -4901,4901l-25186 0c-2707,0 -4901,-2194 -4901,-4901l0 -25186c0,-2707 2194,-4901 4901,-4901zm20285 9802l-15384 0 0 15384 15384 0 0 -15384zm-20285 -69684l107814 0c2707,0 4901,2195 4901,4902l0 39767c0,2707 -2194,4901 -4901,4901l-107814 0c-2707,0 -4901,-2194 -4901,-4901l0 -39767c0,-2707 2194,-4902 4901,-4902zm102913 9803l-98012 0 0 29965 98012 0 0 -29965zm-86564 -49488c-2707,0 -4902,-2195 -4902,-4901 0,-2707 2195,-4902 4902,-4902l34465 0c2707,0 4901,2195 4901,4902 0,2706 -2194,4901 -4901,4901l-34465 0zm0 -21652c-2707,0 -4902,-2195 -4902,-4902 0,-2706 2195,-4901 4902,-4901l61418 0c2707,0 4902,2195 4902,4901 0,2707 -2195,4902 -4902,4902l-61418 0zm-51297 -19098l-31950 32714 28014 0c1077,0 2060,-445 2776,-1160 715,-716 1160,-1699 1160,-2776l0 -28778zm141139 55005l1941 0c7897,0 15073,3227 20270,8425 5198,5198 8425,12373 8425,20270l0 170881c0,7896 -3227,15072 -8425,20270 -5197,5198 -12373,8425 -20270,8425l-108694 0c-7896,0 -15072,-3227 -20270,-8425 -4181,-4182 -7087,-9644 -8063,-15731l-24101 0c-7896,0 -15072,-3227 -20270,-8425 -5198,-5198 -8425,-12373 -8425,-20270l0 -194577c0,-1463 641,-2777 1658,-3675l44716 -45784c958,-985 2230,-1478 3503,-1479l0 -14 109310 0c7896,0 15072,3227 20270,8425 5198,5198 8425,12374 8425,20270l0 41414zm-125645 198491c35,236 53,477 53,723 0,238 -17,472 -50,701 90,5056 2199,9648 5550,13000 3427,3426 8149,5553 13339,5553l108694 0c5190,0 9913,-2127 13339,-5553 3427,-3426 5554,-8149 5554,-13339l0 -170881c0,-5190 -2128,-9913 -5554,-13339 -3426,-3427 -8149,-5554 -13339,-5554l-5310 0c-482,159 -997,245 -1532,245 -535,0 -1050,-86 -1532,-245l-100320 0c-5190,0 -9912,2127 -13339,5554 -3425,3426 -5553,8149 -5553,13339l0 169796z"/>
 </g>
</svg>
