<?xml version="1.0" encoding="UTF-8"?>
<!DOCTYPE svg PUBLIC "-//W3C//DTD SVG 1.1//EN" "http://www.w3.org/Graphics/SVG/1.1/DTD/svg11.dtd">
<!-- Creator: CorelDRAW X8 -->
<svg xmlns="http://www.w3.org/2000/svg" xml:space="preserve" width="529px" height="566px" version="1.1" style="shape-rendering:geometricPrecision; text-rendering:geometricPrecision; image-rendering:optimizeQuality; fill-rule:evenodd; clip-rule:evenodd"
viewBox="0 0 133793 143116"
 xmlns:xlink="http://www.w3.org/1999/xlink">
 <defs>
  <style type="text/css">
   <![CDATA[
    .fil0 {fill:#FEFEFE;fill-rule:nonzero}
   ]]>
  </style>
 </defs>
 <g id="Слой_x0020_1">
  <metadata id="CorelCorpID_0Corel-Layer"/>
  <path class="fil0" d="M22387 94384l1753 1623c6102,-8123 12796,-12560 19927,-14274 7444,-1789 15234,-576 23239,2524l24711 0c3902,0 6581,1900 8067,4539l15019 -14878c3405,-3373 7689,-3957 11288,-2810 1485,473 2851,1244 3990,2236 1167,1018 2103,2267 2691,3670 1278,3042 992,6728 -1950,10279l-19791 23874c-2083,2512 -4552,4521 -7436,5886 -2724,1291 -5788,1995 -9208,1995l-38481 0c-1745,0 -3420,62 -4979,324 -516,86 -1026,195 -1528,330 816,916 1251,2064 1295,3224 50,1308 -401,2641 -1364,3682l-13756 14859 -53 70 -7 -7c-958,1000 -2232,1532 -3521,1582 -1308,50 -2641,-400 -3682,-1364l-70 -52 7 -7 -26899 -24901c-1041,-964 -1594,-2265 -1645,-3581 -50,-1308 400,-2641 1364,-3682l13756 -14859c964,-1042 2265,-1595 3581,-1646 1308,-50 2642,401 3682,1364zm15330 -85566c2983,0 5820,1186 7928,3294 2108,2108 3294,4944 3294,7928l0 4664c0,2984 -1186,5820 -3294,7928 -2108,2108 -4945,3294 -7928,3294 -2984,0 -5820,-1186 -7928,-3294 -2108,-2108 -3294,-4944 -3294,-7928l0 -4664c0,-2984 1186,-5820 3294,-7928 2108,-2108 4945,-3294 7928,-3294zm79339 31205c-883,1035 -1947,1908 -3137,2572 -1701,947 -3602,1443 -5549,1443 -1948,0 -3849,-496 -5550,-1443 -1190,-663 -2254,-1537 -3137,-2572 -1608,632 -3029,1677 -4120,3017 1214,2397 1898,5100 1898,7952l0 10147 25949 0 0 -11826c0,-2248 -755,-4409 -2151,-6170 -1102,-1389 -2554,-2472 -4203,-3120zm-24030 -726c1901,-1950 4327,-3340 6997,-3968 962,-226 1959,225 2428,1090 627,973 1489,1781 2500,2344 1048,584 2220,880 3419,880 1198,0 2371,-296 3418,-880 1048,-583 1934,-1428 2565,-2448 422,-680 1173,-1068 1951,-1038l13 -42 400 94c3154,744 5967,2548 7978,5084 2013,2539 3110,5657 3110,8900l0 14024c0,1214 -984,2198 -2197,2198l-28147 0 0 3311c0,1236 -1002,2239 -2238,2239l-43889 0c-1236,0 -2239,-1003 -2239,-2239l0 -3311 -28920 0c-1214,0 -2198,-984 -2198,-2198l0 -14024c0,-3243 1098,-6361 3110,-8900 2011,-2536 4824,-4340 7978,-5084l400 -94 13 42c778,-30 1530,358 1951,1038 631,1020 1518,1865 2565,2448 1048,584 2221,880 3419,880 1198,0 2371,-296 3418,-880 1012,-563 1873,-1371 2500,-2344 469,-865 1467,-1316 2429,-1090 2863,674 5445,2223 7401,4401 2429,-2940 5789,-5092 9619,-5995 1009,-235 2018,254 2482,1127 847,1322 2014,2422 3392,3190 1360,757 2937,1189 4624,1189 1688,0 3264,-432 4624,-1189 1421,-792 2617,-1935 3470,-3311 516,-836 1496,-1213 2403,-1001l1 -5c3640,858 6856,2844 9250,5562zm15039 -30479c2984,0 5820,1186 7928,3294 2108,2108 3295,4944 3295,7928l0 4664c0,2984 -1187,5820 -3295,7928 -2108,2108 -4944,3294 -7928,3294 -2983,0 -5820,-1186 -7927,-3294 -2108,-2108 -3295,-4944 -3295,-7928l0 -4664c0,-2984 1187,-5820 3295,-7928 2107,-2108 4944,-3294 7927,-3294zm-79339 31205c-1649,648 -3101,1731 -4202,3120 -1396,1761 -2151,3922 -2151,6170l0 11826 26722 0 0 -10147c0,-2606 572,-5087 1596,-7324 -124,-179 -254,-354 -389,-525 -1101,-1389 -2554,-2472 -4203,-3120 -883,1035 -1947,1909 -3137,2572 -1700,947 -3602,1443 -5549,1443 -1947,0 -3849,-496 -5550,-1443 -1190,-664 -2254,-1537 -3137,-2572zm8991 -26810c-1815,0 -3538,725 -4820,2007 -1282,1282 -2007,3004 -2007,4820l0 4664c0,1816 725,3538 2007,4820 1283,1282 3005,2007 4820,2007 1815,0 3538,-725 4820,-2007 1282,-1282 2007,-3005 2007,-4820l0 -4664c0,-1816 -725,-3538 -2007,-4820 -1283,-1282 -3005,-2007 -4820,-2007zm70348 0c-1815,0 -3537,725 -4819,2007 -1283,1282 -2007,3004 -2007,4820l0 4664c0,1815 725,3538 2007,4820 1282,1282 3004,2007 4819,2007 1815,0 3538,-725 4820,-2007 1282,-1282 2007,-3004 2007,-4820l0 -4664c0,-1816 -725,-3538 -2007,-4820 -1282,-1282 -3004,-2007 -4820,-2007zm-17940 29578c-1537,-1939 -3600,-3443 -5965,-4288 -1126,1396 -2514,2571 -4089,3448 -2020,1126 -4337,1767 -6793,1767 -2456,0 -4773,-641 -6792,-1767 -1575,-877 -2964,-2052 -4090,-3448 -2365,845 -4427,2349 -5964,4288 -1789,2256 -2860,5107 -2860,8201l0 15615 39412 0 0 -15615c0,-3094 -1071,-5945 -2859,-8201zm-17234 -42791c3777,0 7210,1544 9697,4030 2486,2487 4030,5920 4030,9697l0 5938c0,3777 -1544,7210 -4030,9696 -2487,2487 -5920,4031 -9697,4031 -3777,0 -7210,-1544 -9697,-4031 -2486,-2486 -4030,-5919 -4030,-9696l0 -5938c0,-3777 1544,-7210 4030,-9697 2487,-2486 5920,-4030 9697,-4030zm0 4477c-2541,0 -4854,1041 -6531,2719 -1677,1677 -2719,3990 -2719,6531l0 5938c0,2541 1042,4853 2719,6531 1677,1677 3990,2719 6531,2719 2541,0 4853,-1042 6531,-2719 1678,-1678 2719,-3990 2719,-6531l0 -5938c0,-2541 -1041,-4854 -2719,-6531 -1678,-1678 -3990,-2719 -6531,-2719zm-11345 95055c1388,0 2513,1126 2513,2513 0,1388 -1125,2514 -2513,2514 -1388,0 -2513,-1126 -2513,-2514 0,-1387 1125,-2513 2513,-2513zm39882 -5800c4,130 6,261 5,392 -3,1350 -241,2699 -710,3940 -1282,3396 -4204,6063 -8706,6063l-18848 0c-1236,0 -2238,-1003 -2238,-2239 0,-1236 1002,-2238 2238,-2238l18848 0c2339,0 3858,-1390 4526,-3160 284,-752 428,-1562 431,-2366 2,-808 -137,-1615 -417,-2356 -648,-1706 -2149,-3034 -4540,-3034l-25131 0c-273,0 -551,-51 -822,-157 -7349,-2902 -14399,-4085 -20965,-2506 -6238,1499 -12165,5524 -17669,12982l18601 17220c1461,-646 2947,-1055 4462,-1309 1896,-318 3786,-393 5713,-393l38481 0c2747,0 5175,-550 7302,-1558 2260,-1070 4220,-2674 5897,-4697l19791 -23874c1718,-2073 1940,-4098 1268,-5697 -326,-777 -848,-1473 -1503,-2043 -684,-597 -1506,-1060 -2398,-1344 -2150,-686 -4726,-323 -6794,1726l-16649 16492c-55,55 -113,107 -173,156zm-55104 28883l-26962 -24960c-134,-124 -316,-182 -499,-175 -174,7 -345,78 -468,211l-13756 14859c-124,134 -182,316 -175,499 6,174 78,345 211,468l26961 24961 71 52c122,88 274,128 428,122 174,-6 345,-77 468,-210l52 -70 7 6 13698 -14796c124,-134 181,-315 174,-499 -6,-174 -77,-345 -210,-468z"/>
 </g>
</svg>
