<?xml version="1.0" encoding="UTF-8"?>
<!DOCTYPE svg PUBLIC "-//W3C//DTD SVG 1.1//EN" "http://www.w3.org/Graphics/SVG/1.1/DTD/svg11.dtd">
<!-- Creator: CorelDRAW X8 -->
<svg xmlns="http://www.w3.org/2000/svg" xml:space="preserve" width="520px" height="521px" version="1.1" style="shape-rendering:geometricPrecision; text-rendering:geometricPrecision; image-rendering:optimizeQuality; fill-rule:evenodd; clip-rule:evenodd"
viewBox="0 0 140736 141020"
 xmlns:xlink="http://www.w3.org/1999/xlink">
 <defs>
  <style type="text/css">
   <![CDATA[
    .fil0 {fill:#FFD542;fill-rule:nonzero}
   ]]>
  </style>
 </defs>
 <g id="Слой_x0020_1">
  <metadata id="CorelCorpID_0Corel-Layer"/>
  <path class="fil0" d="M119461 77099l-14 -14553c0,-1319 1070,-2389 2389,-2389 160,0 316,16 467,46l2 -9c416,84 786,142 1104,173l10 1c323,31 700,47 1131,47 3145,0 5993,-1275 8053,-3336 2061,-2060 3336,-4908 3336,-8053 0,-3145 -1275,-5993 -3336,-8053 -2060,-2061 -4908,-3336 -8053,-3336 -435,0 -818,17 -1146,49 -395,39 -771,95 -1126,167 -1294,259 -2552,-580 -2811,-1873 -31,-158 -47,-314 -47,-469l-14 -13945 -14483 0c-1325,0 -2398,-1074 -2398,-2398 0,-246 36,-483 105,-706 64,-322 117,-666 157,-1028 40,-378 62,-795 62,-1248 0,-3145 -1275,-5993 -3336,-8054 -2061,-2060 -4909,-3335 -8053,-3335 -3146,0 -5993,1275 -8054,3335 -2061,2061 -3336,4909 -3336,8054 0,453 22,870 63,1248 47,435 113,842 196,1219 284,1288 -530,2563 -1818,2848 -172,38 -345,56 -515,56l0 9 -13227 0 2 11279 366 -5c4469,0 8516,1812 11445,4741 2929,2929 4741,6976 4741,11445 0,4469 -1812,8516 -4741,11445 -2929,2929 -6976,4741 -11445,4741l-489 -9 10 11785 13843 -12c1319,46 2351,1154 2305,2473 -16,448 -31,747 -46,1058 -27,555 -55,1113 -55,1738 0,3146 1276,5993 3336,8054 2061,2060 4908,3336 8054,3336 3145,0 5992,-1276 8053,-3336 2061,-2061 3336,-4908 3336,-8054 0,-411 -16,-782 -56,-1087 -39,-295 -106,-600 -210,-918l7 -2c-78,-235 -120,-487 -120,-748 0,-1319 1070,-2389 2389,-2389l13967 -2zm-54799 4667l11 12995c0,1319 -1070,2389 -2389,2389 -173,0 -342,-19 -505,-54l-1 7c-520,-112 -996,-186 -1417,-230 -530,-56 -1052,-75 -1486,-75 -3145,0 -5993,1276 -8053,3336 -2061,2061 -3336,4909 -3336,8054 0,3145 1275,5993 3336,8053 2060,2061 4908,3336 8053,3336 652,0 1282,-31 1947,-63 448,-21 909,-44 1530,-65 1319,-41 2422,995 2464,2314l-41 14400c14777,-673 28096,-6938 37888,-16730 9719,-9719 15964,-22911 16715,-37555l-11103 1 6 366c0,4470 -1812,8516 -4741,11445 -2929,2929 -6976,4741 -11445,4741 -4470,0 -8517,-1812 -11445,-4741 -2930,-2929 -4741,-6975 -4741,-11445l9 -489 -11256 10zm-4778 4l-13524 11c-1320,0 -2389,-1069 -2389,-2389 0,-173 18,-342 53,-504l-6 -2c112,-520 185,-996 229,-1417 56,-530 75,-1052 75,-1486 0,-3144 -1275,-5992 -3336,-8053 -2060,-2061 -4908,-3336 -8053,-3336 -3146,0 -5993,1275 -8054,3336 -2060,2061 -3336,4909 -3336,8053 0,652 31,1282 63,1947 22,448 45,909 65,1530 42,1319 -994,2423 -2314,2464l-14484 -41c752,14642 6997,27832 16715,37550 9907,9907 23425,16204 38409,16752l34 -11845c-460,20 -863,34 -1156,34 -4469,0 -8516,-1812 -11445,-4741 -2929,-2929 -4741,-6976 -4741,-11445 0,-4469 1812,-8516 4741,-11445 2929,-2929 6976,-4741 11445,-4741 288,0 630,9 1018,32l-9 -10264zm-55059 -4665l11956 34c-20,-459 -34,-863 -34,-1156 0,-4469 1812,-8516 4741,-11445 2929,-2929 6975,-4740 11445,-4740 4469,0 8516,1811 11445,4740 2929,2929 4741,6976 4741,11445 0,289 -10,630 -33,1018l10794 -9 -12 -14372c46,-1320 1154,-2351 2473,-2305 448,16 747,31 1058,46 555,27 1113,54 1738,54 3145,0 5993,-1275 8054,-3336 2060,-2060 3335,-4908 3335,-8053 0,-3145 -1275,-5993 -3335,-8053 -2061,-2061 -4909,-3336 -8054,-3336 -412,0 -782,16 -1087,56 -295,38 -600,105 -918,210l-2 -7c-235,77 -487,120 -748,120 -1319,0 -2389,-1070 -2389,-2389l-2 -14022c-14982,549 -28497,6846 -38403,16752 -9982,9982 -16299,23629 -16763,38748zm119403 -11897l13 13687 10 0c0,17155 -6954,32687 -18196,43929 -11243,11242 -26775,18196 -43930,18196 -17155,0 -32686,-6954 -43929,-18196 -11242,-11242 -18196,-26774 -18196,-43929 0,-17155 6954,-32687 18196,-43929 11243,-11243 26774,-18196 43929,-18196l13160 0c-8,-198 -11,-393 -11,-584 0,-4470 1811,-8516 4741,-11445 2928,-2929 6975,-4741 11445,-4741 4469,0 8516,1812 11445,4741 2929,2929 4740,6975 4740,11445 0,191 -3,386 -11,584l14159 0 0 9c1319,0 2389,1069 2389,2389l14 13677 354 -5c4469,0 8516,1812 11445,4741 2929,2929 4741,6976 4741,11445 0,4469 -1812,8516 -4741,11445 -2929,2929 -6976,4741 -11445,4741l-322 -4z"/>
 </g>
</svg>
