<?xml version="1.0" encoding="UTF-8"?>
<!DOCTYPE svg PUBLIC "-//W3C//DTD SVG 1.1//EN" "http://www.w3.org/Graphics/SVG/1.1/DTD/svg11.dtd">
<!-- Creator: CorelDRAW X8 -->
<svg xmlns="http://www.w3.org/2000/svg" xml:space="preserve" width="515px" height="517px" version="1.1" style="shape-rendering:geometricPrecision; text-rendering:geometricPrecision; image-rendering:optimizeQuality; fill-rule:evenodd; clip-rule:evenodd"
viewBox="0 0 639910 641988"
 xmlns:xlink="http://www.w3.org/1999/xlink">
 <defs>
  <style type="text/css">
   <![CDATA[
    .fil0 {fill:#FEFEFE;fill-rule:nonzero}
   ]]>
  </style>
 </defs>
 <g id="Слой_x0020_1">
  <metadata id="CorelCorpID_0Corel-Layer"/>
  <path class="fil0" d="M361889 574999c0,-6075 4924,-10999 10999,-10999 6074,0 10999,4924 10999,10999 0,17585 -7760,34633 -20208,47081 -12050,12050 -28568,19908 -46782,19908l-249908 0c-18432,0 -35184,-7534 -47320,-19669 -12135,-12136 -19669,-28888 -19669,-47320l0 -508010c0,-18434 7534,-35184 19669,-47320 12136,-12135 28888,-19669 47320,-19669l249908 0c18434,0 35185,7534 47321,19669 12135,12136 19669,28886 19669,47320l0 26363c0,6074 -4925,10999 -10999,10999 -6075,0 -10999,-4925 -10999,-10999l0 -26363c0,-12361 -5066,-23606 -13225,-31766 -8088,-8088 -19209,-13134 -31443,-13222l0 1966c0,17253 -7051,32931 -18407,44290 -11357,11356 -27036,18407 -44290,18407l-125160 0c-17252,0 -32931,-7051 -44289,-18407 -11357,-11359 -18408,-27037 -18408,-44290l0 -1966c-12232,86 -23355,5133 -31444,13222 -8160,8160 -13225,19405 -13225,31766l0 508010c0,12359 5065,23606 13225,31766 8160,8160 19407,13225 31766,13225l249908 0c12039,0 23079,-5315 31228,-13464 8478,-8478 13764,-19904 13764,-31527zm125947 -148005c-1567,13926 -7877,26419 -17279,35821 -10908,10911 -25984,17660 -42632,17660 -16647,0 -31721,-6749 -42632,-17660 -9400,-9400 -15711,-21891 -17279,-35814l-68334 3c-6074,0 -10999,-4925 -10999,-10999 0,-1321 233,-2587 660,-3760l32803 -109133c-231,-1819 -420,-3678 -563,-5573 -209,-2779 -316,-5486 -316,-8108 0,-29453 11939,-56120 31239,-75421 19301,-19299 45969,-31240 75421,-31240 29452,0 56120,11939 75421,31240 19300,19301 31239,45968 31239,75421 0,2622 -107,5328 -316,8104 -143,1894 -330,3751 -562,5568l32991 109765c1732,5813 -1577,11932 -7390,13664 -1044,311 -2100,457 -3137,459l-68335 3zm-97599 6c1409,7843 5206,14857 10610,20261 6928,6928 16504,11216 27078,11216 10575,0 20150,-4287 27078,-11216 5404,-5404 9202,-12421 10612,-20266l-75378 5zm97555 -197436c-15320,-15319 -36488,-24796 -59867,-24796 -23379,0 -44546,9477 -59867,24796 -15319,15319 -24796,36487 -24796,59867 0,2283 80,4442 232,6474 160,2108 406,4250 736,6416 229,1549 134,3171 -343,4770l-29432 97915 226941 0 -29301 -97484c-559,-1619 -745,-3394 -474,-5205 329,-2166 576,-4309 735,-6416 152,-2031 232,-4188 232,-6470 0,-23380 -9477,-44548 -24796,-59867zm-215570 -109192l309049 0c16136,0 30801,6594 41423,17216 10622,10622 17216,25287 17216,41424l0 307828c0,16136 -6594,30801 -17216,41423 -10622,10621 -25287,17216 -41423,17216l-309049 0c-16136,0 -30801,-6595 -41423,-17216 -10621,-10622 -17216,-25287 -17216,-41423l0 -72526 -124035 -70647c-5268,-2989 -7115,-9683 -4126,-14951 1039,-1830 2524,-3245 4243,-4191l123918 -70581 0 -74932c0,-16137 6595,-30802 17216,-41424 10622,-10622 25287,-17216 41423,-17216zm309049 21998l-309049 0c-10063,0 -19224,4127 -25869,10772 -6645,6646 -10772,15805 -10772,25870l0 81289 -30 0c-3,3814 -1999,7520 -5556,9538l-112875 64290 112149 63876c3731,1760 6312,5554 6312,9952l0 78883c0,10063 4127,19223 10772,25869 6646,6645 15806,10772 25869,10772l309049 0c10065,0 19223,-4127 25869,-10772 6645,-6645 10772,-15806 10772,-25869l0 -307828c0,-10065 -4127,-19225 -10772,-25870 -6644,-6645 -15804,-10772 -25869,-10772zm-470560 451971c-6074,0 -10999,-4925 -10999,-10999 0,-6075 4925,-10999 10999,-10999l162465 0c6074,0 10999,4924 10999,10999 0,6074 -4925,10999 -10999,10999l-162465 0zm184512 -572343l-206558 0 0 1969c0,11180 4583,21353 11964,28736 7382,7381 17555,11963 28735,11963l125160 0c11180,0 21355,-4582 28736,-11963 7381,-7383 11963,-17556 11963,-28736l0 -1969z"/>
 </g>
</svg>
