<?xml version="1.0" encoding="UTF-8"?>
<!DOCTYPE svg PUBLIC "-//W3C//DTD SVG 1.1//EN" "http://www.w3.org/Graphics/SVG/1.1/DTD/svg11.dtd">
<!-- Creator: CorelDRAW X8 -->
<svg xmlns="http://www.w3.org/2000/svg" xml:space="preserve" width="514px" height="511px" version="1.1" style="shape-rendering:geometricPrecision; text-rendering:geometricPrecision; image-rendering:optimizeQuality; fill-rule:evenodd; clip-rule:evenodd"
viewBox="0 0 361971 359913"
 xmlns:xlink="http://www.w3.org/1999/xlink">
 <defs>
  <style type="text/css">
   <![CDATA[
    .fil0 {fill:#FFD542;fill-rule:nonzero}
   ]]>
  </style>
 </defs>
 <g id="Слой_x0020_1">
  <metadata id="CorelCorpID_0Corel-Layer"/>
  <path class="fil0" d="M120216 53511l0 -34504c0,-5233 2136,-9987 5578,-13429 3442,-3441 8195,-5578 13429,-5578l151369 0c1909,0 3620,860 4763,2213l64814 66086c1190,1210 1784,2784 1784,4358l18 0 0 268249c0,5233 -2137,9987 -5578,13428 -3442,3442 -8195,5579 -13429,5579l-203741 0c-5234,0 -9987,-2137 -13429,-5579 -140,-139 -272,-284 -396,-434 -3208,-3414 -5182,-7992 -5182,-12994l0 -34073c-32390,-1665 -61570,-15481 -83068,-36978 -22951,-22952 -37148,-54660 -37148,-89683 0,-35023 14197,-66731 37148,-89683 21498,-21497 50678,-35313 83068,-36978zm24836 101117l-387 -120072c0,-3429 2780,-6209 6209,-6209l389 -1 0 -24c35022,0 66731,14196 89683,37148 22951,22952 37148,54660 37148,89683 0,3442 -2791,6233 -6233,6233l-120598 0c-3443,0 -6234,-2791 -6234,-6233l23 -525zm12051 -113693l349 107985 108007 0c-1563,-29100 -14004,-55311 -33328,-74636 -19410,-19411 -45771,-31877 -75028,-33349zm-28351 145440l-78032 79158c20217,18038 46884,29004 76111,29004 31581,0 60174,-12802 80869,-33496 19411,-19411 31877,-45771 33349,-75028l-112297 362zm-86847 70392l78693 -79828 0 -110963c-29100,1563 -55311,14004 -74636,33327 -20694,20695 -33496,49288 -33496,80869 0,29461 11143,56321 29439,76595zm90777 50101l0 34038c0,1690 637,3229 1680,4380l246 234c1188,1187 2823,1926 4615,1926l203741 0c1792,0 3427,-739 4614,-1926 1188,-1188 1927,-2823 1927,-4614l0 -261792 -46123 0c-5233,0 -9987,-2137 -13429,-5579 -139,-139 -271,-284 -395,-434 -3209,-3414 -5183,-7992 -5183,-12994l0 -47641 -145152 0c-1792,0 -3427,739 -4615,1927 -1187,1187 -1926,2822 -1926,4614l0 38413c248,671 382,1397 382,2154l0 114369 114364 -369c3429,0 6209,2780 6209,6209l1 389 24 0c0,35023 -14196,66731 -37148,89683 -21666,21667 -51137,35528 -83832,37013zm159410 -119876c-3443,0 -6233,-2791 -6233,-6233 0,-3443 2790,-6233 6233,-6233l42219 0c3442,0 6233,2790 6233,6233 0,3442 -2791,6233 -6233,6233l-42219 0zm0 -35574c-3443,0 -6233,-2791 -6233,-6233 0,-3442 2790,-6233 6233,-6233l42219 0c3442,0 6233,2791 6233,6233 0,3442 -2791,6233 -6233,6233l-42219 0zm0 -37137c-3443,0 -6233,-2791 -6233,-6233 0,-3443 2790,-6233 6233,-6233l42219 0c3442,0 6233,2790 6233,6233 0,3442 -2791,6233 -6233,6233l-42219 0zm-40146 174276c-2433,-2433 -2433,-6381 0,-8814 2434,-2434 6381,-2434 8815,0l11617 11617 27081 -27081c2433,-2433 6381,-2433 8814,0 2433,2434 2433,6382 0,8815l-31487 31488c-2434,2434 -6381,2434 -8815,0l-16025 -16025zm31020 -59169c14980,0 28542,6074 38359,15889 9817,9816 15889,23380 15889,38358 0,14980 -6072,28542 -15889,38359 -9817,9817 -23379,15889 -38359,15889 -14978,0 -28542,-6072 -38358,-15889 -9815,-9817 -15889,-23379 -15889,-38359 0,-14978 6074,-28542 15889,-38358 9816,-9815 23380,-15889 38358,-15889zm29545 24703c-7561,-7559 -18007,-12237 -29545,-12237 -11537,0 -21983,4678 -29544,12237 -7559,7561 -12237,18007 -12237,29544 0,11538 4678,21984 12237,29545 7560,7559 18007,12237 29544,12237 11538,0 21985,-4678 29545,-12237 7559,-7560 12237,-18007 12237,-29545 0,-11537 -4678,-21984 -12237,-29544zm28627 -187444l-44297 -45165 0 38625c0,1690 638,3229 1680,4380l247 234c1188,1187 2822,1926 4614,1926l37756 0z"/>
 </g>
</svg>
