<?xml version="1.0" encoding="UTF-8"?>
<!DOCTYPE svg PUBLIC "-//W3C//DTD SVG 1.1//EN" "http://www.w3.org/Graphics/SVG/1.1/DTD/svg11.dtd">
<!-- Creator: CorelDRAW X8 -->
<svg xmlns="http://www.w3.org/2000/svg" xml:space="preserve" width="529px" height="606px" version="1.1" style="shape-rendering:geometricPrecision; text-rendering:geometricPrecision; image-rendering:optimizeQuality; fill-rule:evenodd; clip-rule:evenodd"
viewBox="0 0 137917 157915"
 xmlns:xlink="http://www.w3.org/1999/xlink">
 <defs>
  <style type="text/css">
   <![CDATA[
    .fil0 {fill:#FFD542;fill-rule:nonzero}
   ]]>
  </style>
 </defs>
 <g id="Слой_x0020_1">
  <metadata id="CorelCorpID_0Corel-Layer"/>
  <path class="fil0" d="M23077 107681l1807 1673c6290,-8374 13191,-12947 20541,-14714 7674,-1845 15704,-594 23955,2602l25473 0c4022,0 6783,1958 8315,4678l15482 -15336c3511,-3477 7927,-4079 11637,-2896 1530,488 2939,1282 4112,2304 1204,1050 2168,2338 2775,3783 1316,3136 1022,6936 -2011,10596l-20401 24610c-2147,2590 -4692,4660 -7664,6068 -2809,1330 -5967,2056 -9492,2056l-39668 0c-1798,0 -3525,64 -5132,334 -532,89 -1057,201 -1575,340 841,945 1289,2128 1335,3323 52,1349 -414,2723 -1406,3796l-14180 15317 -55 72 -7 -7c-988,1031 -2301,1579 -3630,1631 -1348,52 -2722,-413 -3795,-1406l-72 -54 6 -7 -27727 -25669c-1074,-993 -1643,-2334 -1696,-3691 -52,-1348 413,-2722 1406,-3795l14180 -15318c994,-1073 2335,-1643 3692,-1696 1348,-52 2722,413 3795,1406zm85119 -59142c1301,0 2355,1055 2355,2356 0,1300 -1054,2355 -2355,2355 -1301,0 -2356,-1055 -2356,-2355 0,-1301 1055,-2356 2356,-2356zm-68950 -28510l9925 0 15632 -15511c901,-896 2358,-891 3254,9 56,56 108,115 157,175l6814 7679 11705 -11705c901,-901 2362,-901 3263,0 58,57 112,118 162,180l17377 18856c92,100 174,206 245,317l7053 0c1993,0 3810,818 5132,2136l16 15c1314,1322 2129,3136 2129,5126l0 14958c29,145 44,296 44,450 0,154 -15,305 -44,451l0 31772c0,1993 -818,3810 -2135,5132l-16 16c-1322,1314 -3136,2129 -5126,2129l-75587 0c-1993,0 -3810,-818 -5132,-2136l-16 -15c-1314,-1322 -2130,-3136 -2130,-5126l0 -47631c0,-1993 819,-3810 2136,-5132l16 -15c1321,-1314 3136,-2130 5126,-2130zm47383 32773c2690,0 5126,1091 6890,2854 1763,1763 2854,4200 2854,6890 0,2691 -1091,5127 -2854,6890l-148 135c-1755,1684 -4132,2719 -6742,2719 -2680,0 -5113,-1090 -6881,-2854l-13 -13c-1761,-1768 -2851,-4199 -2851,-6877 0,-2682 1093,-5117 2859,-6885l-4 -5c1763,-1763 4199,-2854 6890,-2854zm3627 6117c-928,-928 -2211,-1502 -3627,-1502 -1417,0 -2699,574 -3627,1502l-5 -5 -4 5c-923,922 -1494,2205 -1494,3627 0,1423 571,2705 1494,3627l9 9c922,922 2204,1493 3627,1493 1372,0 2614,-531 3527,-1396l100 -106c928,-928 1502,-2211 1502,-3627 0,-1416 -574,-2699 -1502,-3627zm-30152 -29668c2690,0 5127,1091 6890,2855 1763,1763 2854,4199 2854,6890 0,2690 -1091,5126 -2854,6890l-147 135c-1756,1684 -4133,2719 -6743,2719 -2680,0 -5113,-1091 -6881,-2854l-13 -13c-1761,-1768 -2850,-4200 -2850,-6877 0,-2682 1092,-5117 2859,-6886l-5 -4c1763,-1764 4199,-2855 6890,-2855zm3627 6118c-928,-928 -2211,-1503 -3627,-1503 -1417,0 -2699,575 -3627,1503l-5 -5 -4 5c-923,922 -1493,2204 -1493,3627 0,1422 570,2704 1493,3627l9 9c922,922 2204,1493 3627,1493 1372,0 2614,-531 3528,-1397l99 -105c928,-928 1502,-2211 1502,-3627 0,-1417 -574,-2699 -1502,-3627zm-5590 34138c-901,901 -2362,901 -3263,0 -901,-901 -901,-2362 0,-3263l33962 -33961c901,-901 2362,-901 3263,0 901,900 901,2362 0,3263l-33962 33961zm59354 -8124l-10167 0c-2887,0 -5509,-1179 -7409,-3079 -1900,-1900 -3079,-4522 -3079,-7409 0,-2887 1179,-5510 3079,-7409 1900,-1900 4522,-3079 7409,-3079l10167 0 0 -13101c0,-735 -297,-1400 -774,-1878l-10 -9c-477,-478 -1142,-775 -1878,-775l-75587 0c-736,0 -1401,297 -1879,775l-9 9c-478,478 -774,1143 -774,1878l0 47631c0,735 296,1400 774,1878l9 9c478,478 1143,775 1879,775l75587 0c736,0 1401,-297 1878,-775l10 -9c477,-478 774,-1143 774,-1878l0 -13554zm0 -16361l-10167 0c-1612,0 -3081,662 -4146,1727 -1065,1065 -1727,2533 -1727,4146 0,1612 662,3081 1727,4146 1065,1065 2534,1727 4146,1727l10167 0 0 -11746zm-61790 -24993l11675 0 17 -18 4374 -4374 -5450 -6142 -10616 10534zm18201 0l27658 0 -13265 -14394 -14393 14394zm-10463 92959c1430,0 2590,1160 2590,2591 0,1430 -1160,2590 -2590,2590 -1431,0 -2591,-1160 -2591,-2590 0,-1431 1160,-2591 2591,-2591zm41111 -5980c4,135 6,270 6,405 -4,1391 -250,2783 -732,4061 -1322,3501 -4334,6250 -8975,6250l-19429 0c-1274,0 -2307,-1033 -2307,-2308 0,-1274 1033,-2307 2307,-2307l19429 0c2411,0 3977,-1433 4666,-3257 292,-775 441,-1610 443,-2439 2,-833 -140,-1665 -429,-2428 -668,-1759 -2215,-3128 -4680,-3128l-25905 0c-282,0 -569,-52 -847,-162 -7576,-2991 -14844,-4211 -21612,-2584 -6430,1545 -12540,5695 -18213,13383l19174 17750c1506,-666 3037,-1087 4599,-1348 1954,-328 3903,-406 5889,-406l39668 0c2831,0 5334,-567 7527,-1606 2329,-1103 4350,-2756 6078,-4841l20401 -24610c1771,-2138 2000,-4225 1307,-5873 -336,-801 -874,-1519 -1549,-2106 -705,-615 -1552,-1092 -2472,-1386 -2217,-706 -4871,-332 -7003,1780l-17162 17000c-58,57 -117,111 -179,160zm-56803 29774l-27792 -25729c-138,-128 -326,-188 -515,-181 -179,7 -355,81 -482,218l-14180 15317c-128,138 -188,326 -181,515 7,179 81,355 218,482l27792 25729 73 55c126,91 283,132 442,126 179,-7 355,-81 482,-217l54 -73 7 7 14119 -15252c128,-138 188,-325 181,-514 -7,-180 -80,-356 -218,-483z"/>
 </g>
</svg>
