<?xml version="1.0" encoding="UTF-8"?>
<!DOCTYPE svg PUBLIC "-//W3C//DTD SVG 1.1//EN" "http://www.w3.org/Graphics/SVG/1.1/DTD/svg11.dtd">
<!-- Creator: CorelDRAW X8 -->
<svg xmlns="http://www.w3.org/2000/svg" xml:space="preserve" width="377px" height="377px" version="1.1" style="shape-rendering:geometricPrecision; text-rendering:geometricPrecision; image-rendering:optimizeQuality; fill-rule:evenodd; clip-rule:evenodd"
viewBox="0 0 138650 138650"
 xmlns:xlink="http://www.w3.org/1999/xlink">
 <defs>
  <style type="text/css">
   <![CDATA[
    .fil1 {fill:#2B2A29}
    .fil0 {fill:#FFD542}
   ]]>
  </style>
 </defs>
 <g id="Слой_x0020_1">
  <metadata id="CorelCorpID_0Corel-Layer"/>
  <circle class="fil0" cx="69325" cy="69325" r="69325"/>
  <path class="fil1" d="M54383 120655c-11774,-3186 -19373,-11305 -23580,-23004 -779,-2167 -421,-4486 1150,-6038l11503 -11359c534,-7019 -218,-11395 -3336,-16431 -2411,-3896 -4701,-6448 -4419,-8985 1028,-9244 14690,-10978 20839,6150 4691,-6 8955,-2342 13083,-6470l22717 -22716c6250,-6251 17107,3740 10352,10495l-11502 11502c4244,857 6648,5089 5032,10352 4471,-214 8650,6268 5320,10784 4492,-994 9574,7196 4745,11933l-14954 14665c-5224,5125 -12356,6926 -19841,6470l-11646 11790c-1405,1422 -3397,1421 -5463,862zm3507 -108234c1608,0 2911,1303 2911,2910 0,1607 -1303,2910 -2911,2910 -1607,0 -2910,-1303 -2910,-2910 0,-1607 1303,-2910 2910,-2910zm16188 3759c1239,0 2243,1004 2243,2243 0,1239 -1004,2243 -2243,2243 -1239,0 -2243,-1004 -2243,-2243 0,-1239 1004,-2243 2243,-2243zm-31890 20006c1239,0 2243,1005 2243,2244 0,1239 -1004,2243 -2243,2243 -1239,0 -2243,-1004 -2243,-2243 0,-1239 1004,-2244 2243,-2244zm2994 -15994l-1 0c-894,448 -1349,1487 -934,2397l11924 26169c415,911 1502,1382 2396,935l1 0c894,-448 1349,-1486 934,-2396l-11924 -26170c-414,-910 -1502,-1382 -2396,-935zm39353 -1579l-1 0c-906,-422 -1994,-27 -2416,880l-9219 19783c-423,907 -27,1995 879,2417l1 0c907,423 1994,27 2417,-880l9219 -19783c422,-907 27,-1994 -880,-2417zm-20884 5875l0 0c1125,-139 2160,667 2299,1792l1552 12515c140,1125 -666,2160 -1792,2299l0 0c-1125,140 -2159,-666 -2299,-1792l-1552 -12514c-140,-1125 666,-2160 1792,-2300zm23860 20955l1448 1439c626,621 629,1642 7,2267l0 0c-621,626 -1642,629 -2267,8l-1448 -1439c-625,-621 -629,-1642 -7,-2267l0 0c621,-626 1641,-629 2267,-8zm-10009 10010l1448 1438c625,621 629,1641 8,2267l-1 0c-621,626 -1641,629 -2267,8l-1448 -1439c-625,-621 -629,-1641 -7,-2267l0 0c621,-626 1641,-629 2267,-7zm13805 30348l6744 -6489c1510,-1453 3905,-1359 5386,123l1 0c1481,1482 1387,3934 -123,5386l-6744 6490c-1510,1452 -3905,1358 -5386,-123l0 0c-1482,-1482 -1388,-3934 122,-5387zm-5345 -10592l6744 -6489c1510,-1453 3905,-1359 5387,123l0 0c1482,1482 1387,3934 -122,5387l-6744 6488c-1510,1453 -3906,1360 -5387,-122l0 0c-1482,-1482 -1388,-3934 122,-5387zm-7676 -8357l8688 -8433c1503,-1459 3904,-1358 5386,124l0 0c1482,1481 1381,3927 -122,5386l-8689 8433c-1503,1459 -3904,1359 -5386,-123l0 0c-1482,-1482 -1381,-3927 123,-5387zm-19107 1778c-232,-1443 -548,-2804 -1251,-4095 5139,-194 9356,-2497 13145,-6305l23523 -23645c2915,-2930 8953,1364 5213,5214l-24614 25342c-5502,5665 1698,12934 6063,11762 -202,4122 1900,7033 6305,8366 -1859,5053 889,9377 4608,10428 -7979,8981 -21568,11552 -32860,4607 5482,-842 7926,-4210 7882,-9578 -22,-2658 -3868,-3044 -3759,-122 339,9189 -12061,7980 -15094,-4353 -1759,-7152 669,-10664 -2985,-20654 -1579,-4316 -6167,-8656 -5754,-10995 471,-2664 3569,-3837 6530,-2163 3336,1885 6718,7314 9664,17067 600,1988 3801,1725 3384,-876zm-24732 25841l9652 -9652c1207,10545 8917,18624 22548,22944l-9098 9415c-9046,2004 -24263,-15138 -23102,-22707z"/>
 </g>
</svg>
