<?xml version="1.0" encoding="UTF-8"?>
<!DOCTYPE svg PUBLIC "-//W3C//DTD SVG 1.1//EN" "http://www.w3.org/Graphics/SVG/1.1/DTD/svg11.dtd">
<!-- Creator: CorelDRAW X8 -->
<svg xmlns="http://www.w3.org/2000/svg" xml:space="preserve" width="449px" height="69px" version="1.1" style="shape-rendering:geometricPrecision; text-rendering:geometricPrecision; image-rendering:optimizeQuality; fill-rule:evenodd; clip-rule:evenodd"
viewBox="0 0 31773481 4852545"
 xmlns:xlink="http://www.w3.org/1999/xlink">
 <defs>
  <style type="text/css">
   <![CDATA[
    .fil0 {fill:black}
   ]]>
  </style>
 </defs>
 <g id="Слой_x0020_1">
  <metadata id="CorelCorpID_0Corel-Layer"/>
  <polygon class="fil0" points="0,4852545 0,6689 868234,6689 2745923,2241154 4617008,6689 5491931,6689 5491931,4852545 4758313,4852545 4758313,982616 2745923,3378620 726845,982616 726845,4852545 "/>
  <polygon class="fil0" points="11403513,4852545 11403513,0 12130358,0 12130358,4125616 16249285,4125616 16249285,4852545 "/>
  <polygon class="fil0" points="23664307,4852545 23664307,3035307 21429842,6689 22284531,6689 24027771,2207542 25764072,6689 26625616,6689 24391068,3035307 24391068,4852545 "/>
  <polygon class="fil0" points="26927709,4852545 26927709,6689 27795859,6689 31039863,3869928 31039863,6689 31773481,6689 31773481,4852545 30905247,4852545 27654554,982616 27654554,4852545 "/>
  <polygon class="fil0" points="10699411,4125616 6257404,4125616 6257404,4852545 10699411,4852545 "/>
  <polygon class="fil0" points="6257404,2793081 6257404,2066153 10699411,2066153 10699411,2793081 "/>
  <polygon class="fil0" points="10699411,733618 10699411,6689 6257404,6689 6257404,733618 "/>
  <polygon class="fil0" points="20370219,2066153 16655141,2066153 16655141,4852545 17388675,4852545 17388675,2793081 20370219,2793081 "/>
  <polygon class="fil0" points="16655141,733618 21097064,733618 21097064,6689 16655141,6689 "/>
 </g>
</svg>
