<?xml version="1.0" encoding="UTF-8"?>
<!DOCTYPE svg PUBLIC "-//W3C//DTD SVG 1.1//EN" "http://www.w3.org/Graphics/SVG/1.1/DTD/svg11.dtd">
<!-- Creator: CorelDRAW X8 -->
<svg xmlns="http://www.w3.org/2000/svg" xml:space="preserve" width="377px" height="377px" version="1.1" style="shape-rendering:geometricPrecision; text-rendering:geometricPrecision; image-rendering:optimizeQuality; fill-rule:evenodd; clip-rule:evenodd"
viewBox="0 0 96550 96550"
 xmlns:xlink="http://www.w3.org/1999/xlink">
 <defs>
  <style type="text/css">
   <![CDATA[
    .fil0 {fill:#FFD542}
    .fil2 {fill:#2B2A29;fill-rule:nonzero}
    .fil1 {fill:#2B2A29;fill-rule:nonzero}
   ]]>
  </style>
 </defs>
 <g id="Слой_x0020_1">
  <metadata id="CorelCorpID_0Corel-Layer"/>
  <circle class="fil0" cx="48275" cy="48275" r="48275"/>
  <path class="fil1" d="M30890 25854l0 -3505 -12575 0 0 16034 4535 0 0 -5497 7078 0 0 -3505 -7078 0 0 -3527 8040 0zm12048 12529l4856 0 -3458 -5039c1992,-962 3138,-2703 3138,-5062 0,-3665 -2749,-5933 -7124,-5933l-7330 0 0 16034 4536 0 0 -4260 2473 0 2909 4260zm-46 -10101c0,1466 -939,2336 -2817,2336l-2519 0 0 -4695 2519 0c1878,0 2817,870 2817,2359zm11568 6597l0 -2932 7123 0 0 -3390 -7123 0 0 -2703 8085 0 0 -3505 -12575 0 0 16034 12873 0 0 -3504 -8383 0zm15392 0l0 -2932 7123 0 0 -3390 -7123 0 0 -2703 8086 0 0 -3505 -12576 0 0 16034 12873 0 0 -3504 -8383 0z"/>
  <polygon class="fil2" points="26492,45674 26492,76678 20735,76678 20735,50502 14180,50502 14180,45674 "/>
  <path class="fil2" d="M35465 59208c3562,0 5424,-1579 5424,-3603 0,-4354 -6456,-2718 -6456,-4232 0,-405 466,-766 1761,-766 971,0 2064,200 3157,806l1153 -2607c-1092,-607 -2792,-930 -4330,-930 -3440,0 -5342,1578 -5342,3639 0,4394 6475,2711 6475,4192 0,465 -425,749 -1720,749 -1336,0 -2813,-385 -3825,-1016l-1153 2634c1072,668 2995,1134 4856,1134zm13700 -3319c-324,222 -749,344 -1174,344 -688,0 -1153,-445 -1153,-1255l0 -3642 2509 0 0 -2874 -2509 0 0 -2853 -3845 0 0 2853 -1599 0 0 2874 1599 0 0 3683c0,2813 1639,4189 4452,4189 1012,0 2003,-203 2671,-628l-951 -2691z"/>
  <path class="fil2" d="M42633 64871l-3238 0 -2800 4689 -2800 -4689 -3525 0 4503 7523 0 4284 3340 0 0 -4234 4520 -7573zm4098 9226l0 -2159 5246 0 0 -2496 -5246 0 0 -1990 5954 0 0 -2581 -9260 0 0 11807 9479 0 0 -2581 -6173 0zm16867 2581l3474 0 -5228 -11807 -3289 0 -5212 11807 3407 0 928 -2294 4992 0 928 2294zm-4942 -4757l1518 -3778 1518 3778 -3036 0zm16664 4757l3576 0 -2547 -3711c1468,-709 2311,-1990 2311,-3728 0,-2698 -2024,-4368 -5246,-4368l-5397 0 0 11807 3340 0 0 -3137 1821 0 2142 3137zm-33 -7439c0,1080 -692,1721 -2075,1721l-1855 0 0 -3458 1855 0c1383,0 2075,641 2075,1737z"/>
 </g>
</svg>
