<?xml version="1.0" encoding="UTF-8"?>
<!DOCTYPE svg PUBLIC "-//W3C//DTD SVG 1.1//EN" "http://www.w3.org/Graphics/SVG/1.1/DTD/svg11.dtd">
<!-- Creator: CorelDRAW X8 -->
<svg xmlns="http://www.w3.org/2000/svg" xml:space="preserve" width="377px" height="377px" version="1.1" style="shape-rendering:geometricPrecision; text-rendering:geometricPrecision; image-rendering:optimizeQuality; fill-rule:evenodd; clip-rule:evenodd"
viewBox="0 0 165477 165477"
 xmlns:xlink="http://www.w3.org/1999/xlink">
 <defs>
  <style type="text/css">
   <![CDATA[
    .fil1 {fill:#2B2A29}
    .fil0 {fill:#FFD542}
   ]]>
  </style>
 </defs>
 <g id="Слой_x0020_1">
  <metadata id="CorelCorpID_0Corel-Layer"/>
  <circle class="fil0" cx="82738" cy="82738" r="82738"/>
  <path class="fil1" d="M35805 34863l76356 0c4906,0 8920,4014 8920,8920l0 14192 -4905 0 0 -14192c0,-2209 -1806,-4016 -4015,-4016l-76356 0c-2209,0 -4016,1807 -4016,4016l0 50666c0,2209 1807,4016 4016,4016l47750 0 0 4905 -16921 0 -2975 11099 19896 0 0 4808 -29906 0c-1322,0 -2404,-1081 -2404,-2404l0 0c0,-1322 1081,-2404 2404,-2404l4933 0 2974 -11099 -25751 0c-4907,0 -8921,-4015 -8921,-8921l0 -50666c0,-4906 4014,-8920 8921,-8920zm19910 50448l0 -32855 5886 0 12732 15149 12685 -15149 5932 0 0 6044c-1893,650 -3590,1732 -4973,3126l0 -2553 -13644 16245 -13690 -16245 0 26238 -4928 0zm44837 21172l0 -22921 4107 0 8882 10569 8850 -10569 4138 0 0 22921 -3469 0 0 -18305 -9519 11333 -9551 -11333 0 18305 -3438 0zm-3563 -44375l32683 0c4907,0 8921,4015 8921,8920l0 50667c0,4905 -4015,8920 -8921,8920l-32683 0c-4905,0 -8920,-4014 -8920,-8920l0 -50667c0,-4906 4014,-8920 8920,-8920zm16342 61577c1217,0 2203,986 2203,2203 0,1217 -986,2204 -2203,2204 -1217,0 -2204,-987 -2204,-2204 0,-1217 987,-2203 2204,-2203zm-16342 -56672l32683 0c2209,0 4016,1808 4016,4015l0 46660c0,2207 -1808,4015 -4016,4015l-32683 0c-2207,0 -4015,-1807 -4015,-4015l0 -46660c0,-2209 1807,-4015 4015,-4015z"/>
 </g>
</svg>
