<?xml version="1.0" encoding="UTF-8"?>
<!DOCTYPE svg PUBLIC "-//W3C//DTD SVG 1.1//EN" "http://www.w3.org/Graphics/SVG/1.1/DTD/svg11.dtd">
<!-- Creator: CorelDRAW X8 -->
<svg xmlns="http://www.w3.org/2000/svg" xml:space="preserve" width="377px" height="377px" version="1.1" style="shape-rendering:geometricPrecision; text-rendering:geometricPrecision; image-rendering:optimizeQuality; fill-rule:evenodd; clip-rule:evenodd"
viewBox="0 0 1627018 1627018"
 xmlns:xlink="http://www.w3.org/1999/xlink">
 <defs>
  <style type="text/css">
   <![CDATA[
    .fil1 {fill:#2B2A29}
    .fil2 {fill:#2B2A29}
    .fil0 {fill:#FFD542}
   ]]>
  </style>
 </defs>
 <g id="Слой_x0020_1">
  <metadata id="CorelCorpID_0Corel-Layer"/>
  <circle class="fil0" cx="813509" cy="813509" r="813509"/>
  <g id="_1979269378352">
   <path class="fil1" d="M463856 416121l525360 0c55366,0 100657,45291 100657,100657l0 743437c0,55365 -45291,100656 -100657,100656l-525360 0c-55366,0 -100657,-45291 -100657,-100656l0 -743437c0,-55366 45291,-100657 100657,-100657zm5 47791l525361 0c29077,0 52865,23788 52865,52866l0 743437c0,29077 -23788,52866 -52865,52866l-525361 0c-29083,0 -52871,-23789 -52871,-52866l0 -743437c0,-29078 23788,-52866 52871,-52866z"/>
   <path class="fil1" d="M550544 329433l525360 0c55366,0 100657,45291 100657,100657l0 743437c0,55365 -45291,100656 -100657,100656l-26802 0 0 -47790 26807 0c29078,0 52866,-23789 52866,-52866l0 -743437c0,-29078 -23788,-52866 -52866,-52866l-525360 0c-29083,0 -52871,23788 -52871,52866l0 24394 -47791 0 0 -24394c0,-55366 45291,-100657 100657,-100657z"/>
   <rect class="fil2" x="489278" y="625651" width="477891" height="47791" rx="20172" ry="23895"/>
   <rect class="fil2" x="489278" y="746960" width="477891" height="47791" rx="20172" ry="23895"/>
   <rect class="fil2" x="489278" y="868269" width="477891" height="47791" rx="20172" ry="23895"/>
   <rect class="fil2" x="489278" y="989578" width="477891" height="47791" rx="20172" ry="23895"/>
   <path class="fil2" d="M513174 1110887l243000 0c13144,0 23895,10751 23895,23895l0 0c0,13144 -10756,23896 -23895,23896l-243000 0c-13139,0 -23896,-10752 -23896,-23896l0 0c0,-13144 10752,-23895 23896,-23895z"/>
   <path class="fil1" d="M637807 244894l525361 0c55365,0 100656,45291 100656,100656l0 743437c0,55366 -45291,100657 -100656,100657l-26803 0 0 -47791 26808 0c29077,0 52866,-23788 52866,-52866l0 -743437c0,-29077 -23789,-52866 -52866,-52866l-525361 0c-29083,0 -52871,23789 -52871,52866l0 24394 -47791 0 0 -24394c0,-55365 45292,-100656 100657,-100656z"/>
  </g>
 </g>
</svg>
