<?xml version="1.0" encoding="UTF-8"?>
<!DOCTYPE svg PUBLIC "-//W3C//DTD SVG 1.1//EN" "http://www.w3.org/Graphics/SVG/1.1/DTD/svg11.dtd">
<!-- Creator: CorelDRAW X8 -->
<svg xmlns="http://www.w3.org/2000/svg" xml:space="preserve" width="204px" height="204px" version="1.1" style="shape-rendering:geometricPrecision; text-rendering:geometricPrecision; image-rendering:optimizeQuality; fill-rule:evenodd; clip-rule:evenodd"
viewBox="0 0 25393 25393"
 xmlns:xlink="http://www.w3.org/1999/xlink">
 <defs>
  <style type="text/css">
   <![CDATA[
    .fil0 {fill:#FFD542}
   ]]>
  </style>
 </defs>
 <g id="Слой_x0020_1">
  <metadata id="CorelCorpID_0Corel-Layer"/>
  <path class="fil0" d="M12696 0c7012,0 12697,5684 12697,12696 0,7012 -5685,12697 -12697,12697 -7012,0 -12696,-5685 -12696,-12697 0,-7012 5684,-12696 12696,-12696zm-3500 8053c-2264,167 -2958,252 -3156,2588 -117,1389 -202,4089 199,5349 479,1504 2460,1368 4256,1404 1873,38 3920,78 5783,-55 2212,-159 2852,-319 3075,-2582 131,-1334 187,-4175 -214,-5373 -504,-1509 -2550,-1352 -4279,-1386 -1829,-37 -3860,-78 -5664,55zm2152 6619c492,-208 3125,-1711 3386,-1975 -257,-262 -2894,-1767 -3386,-1975l0 3950z"/>
 </g>
</svg>
