<?xml version="1.0" encoding="UTF-8"?>
<!DOCTYPE svg PUBLIC "-//W3C//DTD SVG 1.1//EN" "http://www.w3.org/Graphics/SVG/1.1/DTD/svg11.dtd">
<!-- Creator: CorelDRAW X8 -->
<svg xmlns="http://www.w3.org/2000/svg" xml:space="preserve" width="204px" height="204px" version="1.1" style="shape-rendering:geometricPrecision; text-rendering:geometricPrecision; image-rendering:optimizeQuality; fill-rule:evenodd; clip-rule:evenodd"
viewBox="0 0 36362 36362"
 xmlns:xlink="http://www.w3.org/1999/xlink">
 <defs>
  <style type="text/css">
   <![CDATA[
    .fil0 {fill:#FFD542}
   ]]>
  </style>
 </defs>
 <g id="Слой_x0020_1">
  <metadata id="CorelCorpID_0Corel-Layer"/>
  <path class="fil0" d="M18181 0c10042,0 18181,8140 18181,18181 0,10042 -8139,18181 -18181,18181 -10041,0 -18181,-8139 -18181,-18181 0,-10041 8140,-18181 18181,-18181zm1534 14666l-10 -1438 -3520 -18 -22 11736 3680 -15c0,-1839 -7,-3631 -2,-5422 5,-1877 156,-3334 2018,-3441 1963,-114 2043,1499 2056,3264 15,1868 -1,3744 -1,5614l3665 0c-30,-2402 161,-8142 -690,-9965 -543,-1164 -1587,-1868 -3294,-1997 -1283,-96 -2249,117 -3147,925l-733 757zm-9536 10280l3686 -19 -1 -11643 -3665 -83 -20 11745zm978 -17400c-2732,1233 -779,4945 1680,3847 2481,-1107 864,-4995 -1680,-3847z"/>
 </g>
</svg>
